<?xml version="1.0" encoding="UTF-8"?>
<svg id="Layer_2" data-name="Layer 2" xmlns="http://www.w3.org/2000/svg" viewBox="0 0 270 270">
  <defs>
    <style>
      .cls-1 {
        fill: #005aff;
      }
    </style>
  </defs>
  <g id="Layer_1-2" data-name="Layer 1">
    <g>
      <polygon class="cls-1" points="254.14 47.59 254.14 63.45 254.14 79.48 254.14 95.34 254.14 111.21 254.14 127.07 254.14 142.93 254.14 158.79 254.14 174.66 254.14 190.52 254.14 206.55 254.14 222.41 238.27 222.41 238.27 238.27 222.41 238.27 222.41 254.14 206.55 254.14 190.52 254.14 174.66 254.14 158.79 254.14 142.93 254.14 127.07 254.14 111.21 254.14 95.34 254.14 79.48 254.14 63.45 254.14 47.59 254.14 31.73 254.14 15.86 254.14 15.86 270 31.73 270 47.59 270 63.45 270 79.48 270 95.34 270 111.21 270 127.07 270 142.93 270 158.79 270 174.66 270 190.52 270 206.55 270 222.41 270 238.27 270 254.14 270 254.14 254.14 270 254.14 270 238.27 270 222.41 270 206.55 270 190.52 270 174.66 270 158.79 270 142.93 270 127.07 270 111.21 270 95.34 270 79.48 270 63.45 270 47.59 254.14 47.59"/>
      <polygon class="cls-1" points="222.41 15.86 222.41 0 206.55 0 206.55 15.86 206.55 31.73 222.41 31.73 222.41 15.86"/>
      <polygon class="cls-1" points="142.93 15.86 142.93 0 127.07 0 127.07 15.86 127.07 31.73 142.93 31.73 142.93 15.86"/>
      <path class="cls-1" d="M63.45,238.27h143.1v-31.73h31.73V31.73h-15.86v31.73h-15.86v-31.73h-63.62v31.73h-15.86v-31.73h-63.62v31.73h-15.86v-31.73h-15.86v206.55h31.73ZM63.45,174.66h31.89v-31.73h-15.86v-15.86h15.86v-15.86h-31.89v-15.86h63.62v31.73h-15.86v15.86h15.86v31.73h-15.86v15.86h-47.76v-15.86ZM190.52,190.52h-47.59v-15.86h15.86v-31.73h-15.86v-15.86h15.86v-31.73h31.73v79.31h16.03v15.86h-16.03Z"/>
      <polygon class="cls-1" points="63.45 15.86 63.45 0 47.59 0 47.59 15.86 47.59 31.73 63.45 31.73 63.45 15.86"/>
      <polygon class="cls-1" points="15.86 222.41 15.86 206.55 15.86 190.52 15.86 174.66 15.86 158.79 15.86 142.93 15.86 127.07 15.86 111.21 15.86 95.34 15.86 79.48 15.86 63.45 15.86 47.59 0 47.59 0 63.45 0 79.48 0 95.34 0 111.21 0 127.07 0 142.93 0 158.79 0 174.66 0 190.52 0 206.55 0 222.41 0 238.27 0 254.14 15.86 254.14 15.86 238.27 15.86 222.41"/>
    </g>
  </g>
</svg>