<?xml version="1.0" encoding="UTF-8"?>
<svg id="Layer_2" xmlns="http://www.w3.org/2000/svg" version="1.1" viewBox="0 0 660.3 582.9">
  <!-- Generator: Adobe Illustrator 29.6.1, SVG Export Plug-In . SVG Version: 2.1.1 Build 9)  -->
  <defs>
    <style>
      .st0 {
        fill: #005aff;
      }
    </style>
  </defs>
  <g id="Layer_4">
    <g>
      <g>
        <rect class="st0" x="260.8" y="100" width="60" height="20"/>
        <rect class="st0" x="320.8" y="120" width="20" height="20"/>
        <rect class="st0" x="320.8" y="80" width="20" height="20"/>
        <rect class="st0" x="340.8" y="140" width="20" height="20"/>
        <rect class="st0" x="340.8" y="60" width="20" height="20"/>
        <rect class="st0" x="360.8" y="160" width="20" height="60"/>
        <rect class="st0" x="360.8" width="20" height="60"/>
        <rect class="st0" x="380.8" y="140" width="20" height="20"/>
        <rect class="st0" x="380.8" y="60" width="20" height="20"/>
        <rect class="st0" x="400.8" y="120" width="20" height="20"/>
        <rect class="st0" x="400.8" y="80" width="20" height="20"/>
        <rect class="st0" x="420.8" y="100" width="60" height="20"/>
      </g>
      <g>
        <rect class="st0" x="520.5" y="135.7" width="20" height="40"/>
        <rect class="st0" x="500.5" y="175.7" width="20" height="20"/>
        <rect class="st0" x="540.5" y="175.7" width="20" height="20"/>
        <rect class="st0" x="460.5" y="195.7" width="40" height="20"/>
        <rect class="st0" x="560.5" y="195.7" width="40" height="20"/>
        <rect class="st0" x="500.5" y="215.7" width="20" height="20"/>
        <rect class="st0" x="540.5" y="215.7" width="20" height="20"/>
        <rect class="st0" x="520.5" y="235.7" width="20" height="40"/>
      </g>
      <g>
        <rect class="st0" x="77.5" y="442.9" width="20" height="20"/>
        <rect class="st0" x="77.5" y="462.9" width="20" height="20"/>
        <rect class="st0" x="57.5" y="482.9" width="20" height="20"/>
        <rect class="st0" x="97.5" y="482.9" width="20" height="20"/>
        <rect class="st0" x="37.5" y="502.9" width="20" height="20"/>
        <rect class="st0" x="17.5" y="502.9" width="20" height="20"/>
        <rect class="st0" x="117.5" y="502.9" width="20" height="20"/>
        <rect class="st0" x="137.5" y="502.9" width="20" height="20"/>
        <rect class="st0" x="57.5" y="522.9" width="20" height="20"/>
        <rect class="st0" x="97.5" y="522.9" width="20" height="20"/>
        <rect class="st0" x="77.5" y="542.9" width="20" height="20"/>
        <rect class="st0" x="77.5" y="562.9" width="20" height="20"/>
      </g>
      <g>
        <rect class="st0" x="120" y="162" width="80" height="20"/>
        <rect class="st0" x="100" y="182" width="20" height="20"/>
        <rect class="st0" x="200" y="182" width="20" height="20"/>
        <rect class="st0" x="80" y="202" width="20" height="20"/>
        <rect class="st0" x="40" y="222" width="40" height="20"/>
        <polygon class="st0" points="140 222 140 262 100 262 100 242 120 242 120 222 140 222"/>
        <polygon class="st0" points="280 222 280 242 220 242 220 202 240 202 240 222 280 222"/>
        <rect class="st0" x="20" y="242" width="20" height="20"/>
        <rect class="st0" x="280" y="242" width="20" height="20"/>
        <rect class="st0" x="300" y="262" width="20" height="60"/>
        <rect class="st0" y="262" width="20" height="60"/>
        <rect class="st0" x="20" y="322" width="20" height="20"/>
        <rect class="st0" x="280" y="322" width="20" height="20"/>
        <rect class="st0" x="40" y="342" width="240" height="20"/>
      </g>
      <g>
        <rect class="st0" x="440.3" y="339" width="20" height="20"/>
        <rect class="st0" x="360.3" y="399" width="20" height="20"/>
        <rect class="st0" x="420.3" y="359" width="20" height="20"/>
        <polygon class="st0" points="380.3 379 380.3 399 400.3 399 420.3 399 420.3 379 400.3 379 380.3 379"/>
        <polygon class="st0" points="340.3 439 340.3 459 340.3 479 360.3 479 360.3 459 360.3 439 360.3 419 340.3 419 340.3 439"/>
        <rect class="st0" x="360.3" y="479" width="20" height="20"/>
        <rect class="st0" x="620.3" y="479" width="20" height="20"/>
        <polygon class="st0" points="640.3 419 640.3 439 640.3 459 640.3 479 660.3 479 660.3 459 660.3 439 660.3 419 640.3 419"/>
        <polygon class="st0" points="600.3 379 580.3 379 580.3 359 560.3 359 560.3 379 560.3 399 580.3 399 600.3 399 620.3 399 620.3 379 600.3 379"/>
        <rect class="st0" x="620.3" y="399" width="20" height="20"/>
        <rect class="st0" x="380.3" y="499" width="240" height="20"/>
        <rect class="st0" x="540.3" y="339" width="20" height="20"/>
        <rect class="st0" x="460.3" y="319" width="80" height="20"/>
      </g>
    </g>
  </g>
</svg>