<?xml version="1.0" encoding="UTF-8"?>
<svg id="Layer_2" data-name="Layer 2" xmlns="http://www.w3.org/2000/svg" viewBox="0 0 2250 2700">
  <defs>
    <style>
      .cls-1 {
        fill: #005aff;
      }
    </style>
  </defs>
  <g id="Layer_1-2" data-name="Layer 1">
    <g>
      <path class="cls-1" d="M2179.69,1278.95v-213.16h-70.31v-142.11h-70.31v-71.05h-70.31v-71.05h-70.31v-71.05h-70.31v-71.05h-140.62v-71.05h-140.62v-71.05h-281.25v-71.05h-281.25v71.05h-281.25v71.05h-140.62v71.05h-140.62v71.05h-70.31v71.05h-70.31v71.05h-70.31v142.11h-70.31v71.05h-70.31v213.16H0v639.47h70.31v142.11h70.31v142.11h70.31v71.05h70.31v71.05h70.31v71.05h70.31v71.05h70.31v71.05h140.62v71.05h210.94v71.05h562.5v-71.05h210.94v-71.05h140.62v-71.05h70.31v-71.05h70.31v-71.05h70.31v-71.05h70.31v-71.05h70.31v-142.11h70.31v-213.16h70.31v-568.42h-70.31ZM1968.75,1776.32v213.16h-70.31v71.05h-70.31v142.11h-70.31v71.05h-140.62v71.05h-70.31v71.05h-210.94v71.05h-421.88v-71.05h-210.94v-71.05h-70.31v-71.05h-140.62v-71.05h-70.31v-142.11h-70.31v-71.05h-70.31v-213.16h-70.31v-426.32h70.31v-142.11h70.31v-142.11h70.31v-71.05h70.31v-71.05h70.31v-71.05h70.31v-71.05h140.62v-71.05h281.25v-71.05h140.62v71.05h281.25v71.05h140.62v71.05h70.31v71.05h70.31v71.05h70.31v71.05h70.31v142.11h70.31v142.11h70.31v426.32h-70.31Z"/>
      <polygon class="cls-1" points="1828.12 1207.89 1828.12 1136.84 1757.81 1136.84 1757.81 1065.79 1687.5 1065.79 1687.5 994.74 1617.19 994.74 1617.19 923.68 1546.88 923.68 1546.88 852.63 1476.56 852.63 1406.25 852.63 1335.94 852.63 1335.94 781.58 1265.62 781.58 1195.31 781.58 1125 781.58 1125 852.63 1125 923.68 1125 994.74 1125 1065.79 1125 1136.84 1125 1207.89 1125 1278.95 1125 1350 1125 1421.05 1125 1492.11 1125 1563.16 1054.69 1563.16 984.38 1563.16 914.06 1563.16 843.75 1563.16 773.44 1563.16 703.12 1563.16 632.81 1563.16 562.5 1563.16 492.19 1563.16 421.88 1563.16 351.56 1563.16 351.56 1634.21 351.56 1705.26 351.56 1776.32 351.56 1847.37 421.88 1847.37 421.88 1918.42 421.88 1989.47 492.19 1989.47 492.19 2060.53 562.5 2060.53 562.5 2131.58 632.81 2131.58 632.81 2202.63 703.12 2202.63 703.12 2273.68 773.44 2273.68 843.75 2273.68 843.75 2344.74 914.06 2344.74 984.38 2344.74 1054.69 2344.74 1125 2344.74 1195.31 2344.74 1265.62 2344.74 1335.94 2344.74 1406.25 2344.74 1406.25 2273.68 1476.56 2273.68 1546.88 2273.68 1546.88 2202.63 1617.19 2202.63 1617.19 2131.58 1687.5 2131.58 1687.5 2060.53 1757.81 2060.53 1757.81 1989.47 1828.12 1989.47 1828.12 1918.42 1828.12 1847.37 1898.44 1847.37 1898.44 1776.32 1898.44 1705.26 1898.44 1634.21 1898.44 1563.16 1898.44 1492.11 1898.44 1421.05 1898.44 1350 1898.44 1278.95 1828.12 1278.95 1828.12 1207.89"/>
      <polygon class="cls-1" points="140.62 781.58 210.94 781.58 210.94 710.53 281.25 710.53 281.25 639.47 351.56 639.47 351.56 568.42 421.88 568.42 421.88 497.37 351.56 497.37 281.25 497.37 210.94 497.37 140.62 497.37 140.62 568.42 70.31 568.42 70.31 639.47 70.31 710.53 70.31 781.58 70.31 852.63 140.62 852.63 140.62 781.58"/>
      <polygon class="cls-1" points="1898.44 639.47 1968.75 639.47 1968.75 710.53 2039.06 710.53 2039.06 781.58 2109.38 781.58 2109.38 852.63 2179.69 852.63 2179.69 781.58 2179.69 710.53 2179.69 639.47 2179.69 568.42 2109.38 568.42 2109.38 497.37 2039.06 497.37 1968.75 497.37 1898.44 497.37 1828.12 497.37 1828.12 568.42 1898.44 568.42 1898.44 639.47"/>
      <polygon class="cls-1" points="843.75 213.16 914.06 213.16 984.38 213.16 984.38 284.21 984.38 355.26 1054.69 355.26 1125 355.26 1195.31 355.26 1265.62 355.26 1265.62 284.21 1265.62 213.16 1335.94 213.16 1406.25 213.16 1406.25 142.11 1476.56 142.11 1476.56 71.05 1406.25 71.05 1406.25 0 1335.94 0 1265.62 0 1195.31 0 1125 0 1054.69 0 984.38 0 914.06 0 843.75 0 843.75 71.05 773.44 71.05 773.44 142.11 843.75 142.11 843.75 213.16"/>
    </g>
  </g>
</svg>