<?xml version="1.0" encoding="UTF-8"?>
<svg id="Layer_2" xmlns="http://www.w3.org/2000/svg" version="1.1" viewBox="0 0 311.5 534.8">
  <!-- Generator: Adobe Illustrator 29.6.1, SVG Export Plug-In . SVG Version: 2.1.1 Build 9)  -->
  <defs>
    <style>
      .st0 {
        fill: #005aff;
      }
    </style>
  </defs>
  <g id="Layer_4">
    <g>
      <g>
        <g>
          <rect class="st0" x="71.8" y="319" width="40" height="20"/>
          <rect class="st0" x="131.8" y="319" width="40" height="20"/>
          <rect class="st0" x="51.8" y="339" width="20" height="60"/>
          <rect class="st0" x="111.8" y="339" width="20" height="20"/>
          <rect class="st0" x="171.8" y="339" width="20" height="60"/>
          <rect class="st0" x="71.8" y="399" width="20" height="20"/>
          <rect class="st0" x="151.8" y="399" width="20" height="20"/>
          <rect class="st0" x="91.8" y="419" width="20" height="20"/>
          <rect class="st0" x="131.8" y="419" width="20" height="20"/>
          <rect class="st0" x="111.8" y="439" width="20" height="20"/>
        </g>
        <g>
          <rect class="st0" x="188" y="182.2" width="40" height="20"/>
          <rect class="st0" x="248" y="182.2" width="40" height="20"/>
          <rect class="st0" x="168" y="202.2" width="20" height="40"/>
          <rect class="st0" x="228" y="202.2" width="20" height="20"/>
          <rect class="st0" x="288" y="202.2" width="20" height="40"/>
          <rect class="st0" x="188" y="242.2" width="20" height="20"/>
          <rect class="st0" x="268" y="242.2" width="20" height="20"/>
          <rect class="st0" x="208" y="262.2" width="20" height="20"/>
          <rect class="st0" x="248" y="262.2" width="20" height="20"/>
          <rect class="st0" x="228" y="282.2" width="20" height="20"/>
        </g>
      </g>
      <g>
        <rect class="st0" x="271.5" y="494.8" width="20" height="40"/>
        <rect class="st0" x="291.5" y="474.8" width="20" height="20"/>
        <rect class="st0" x="251.5" y="474.8" width="20" height="20"/>
        <rect class="st0" x="271.5" y="434.8" width="20" height="40"/>
      </g>
      <g>
        <rect class="st0" x="155.8" y="60" width="20" height="40"/>
        <rect class="st0" x="175.8" y="40" width="20" height="20"/>
        <rect class="st0" x="135.8" y="40" width="20" height="20"/>
        <rect class="st0" x="155.8" width="20" height="40"/>
      </g>
      <g>
        <rect class="st0" x="40" y="187.8" width="20" height="60"/>
        <rect class="st0" x="60" y="167.8" width="40" height="20"/>
        <rect class="st0" y="167.8" width="40" height="20"/>
        <rect class="st0" x="40" y="107.8" width="20" height="60"/>
      </g>
    </g>
  </g>
</svg>