<?xml version="1.0" encoding="UTF-8"?>
<svg id="Layer_2" xmlns="http://www.w3.org/2000/svg" version="1.1" viewBox="0 0 456.8 474">
  <!-- Generator: Adobe Illustrator 29.6.1, SVG Export Plug-In . SVG Version: 2.1.1 Build 9)  -->
  <defs>
    <style>
      .st0 {
        fill: #005aff;
      }
    </style>
  </defs>
  <g id="Layer_4">
    <g>
      <g>
        <rect class="st0" x="236.8" y="334" width="60" height="20"/>
        <rect class="st0" x="296.8" y="354" width="20" height="20"/>
        <rect class="st0" x="296.8" y="314" width="20" height="20"/>
        <rect class="st0" x="316.8" y="374" width="20" height="20"/>
        <rect class="st0" x="316.8" y="294" width="20" height="20"/>
        <rect class="st0" x="336.8" y="394" width="20" height="80"/>
        <rect class="st0" x="336.8" y="214" width="20" height="80"/>
        <rect class="st0" x="356.8" y="374" width="20" height="20"/>
        <rect class="st0" x="356.8" y="294" width="20" height="20"/>
        <rect class="st0" x="376.8" y="354" width="20" height="20"/>
        <rect class="st0" x="376.8" y="314" width="20" height="20"/>
        <rect class="st0" x="396.8" y="334" width="60" height="20"/>
      </g>
      <g>
        <rect class="st0" y="240.9" width="40" height="20"/>
        <rect class="st0" x="40" y="260.9" width="20" height="20"/>
        <rect class="st0" x="40" y="220.9" width="20" height="20"/>
        <rect class="st0" x="60" y="200.9" width="20" height="20"/>
        <rect class="st0" x="100" y="320.9" width="20" height="80"/>
        <rect class="st0" x="100" y="100.9" width="20" height="80"/>
        <rect class="st0" x="80" y="300.9" width="20" height="20"/>
        <rect class="st0" x="120" y="300.9" width="20" height="20"/>
        <rect class="st0" x="140" y="200.9" width="20" height="20"/>
        <rect class="st0" x="80" y="180.9" width="20" height="20"/>
        <rect class="st0" x="120" y="180.9" width="20" height="20"/>
        <rect class="st0" x="60" y="280.9" width="20" height="20"/>
        <rect class="st0" x="140" y="280.9" width="20" height="20"/>
        <rect class="st0" x="160" y="260.9" width="20" height="20"/>
        <rect class="st0" x="160" y="220.9" width="20" height="20"/>
        <rect class="st0" x="180" y="240.9" width="40" height="20"/>
      </g>
      <g>
        <rect class="st0" x="266.3" width="20" height="40"/>
        <rect class="st0" x="246.3" y="40" width="20" height="20"/>
        <rect class="st0" x="286.3" y="40" width="20" height="20"/>
        <rect class="st0" x="206.3" y="60" width="40" height="20"/>
        <rect class="st0" x="306.3" y="60" width="40" height="20"/>
        <rect class="st0" x="246.3" y="80" width="20" height="20"/>
        <rect class="st0" x="286.3" y="80" width="20" height="20"/>
        <rect class="st0" x="266.3" y="100" width="20" height="40"/>
      </g>
    </g>
  </g>
</svg>