<?xml version="1.0" encoding="UTF-8"?>
<svg id="Layer_2" data-name="Layer 2" xmlns="http://www.w3.org/2000/svg" viewBox="0 0 270 270">
  <defs>
    <style>
      .cls-1 {
        fill: #005aff;
      }
    </style>
  </defs>
  <g id="Layer_1-2" data-name="Layer 1">
    <g>
      <polygon class="cls-1" points="254.14 95.34 254.14 111.21 254.14 127.07 238.27 127.07 222.41 127.07 206.55 127.07 206.55 111.21 206.55 95.34 190.52 95.34 190.52 111.21 190.52 127.07 174.66 127.07 158.79 127.07 142.93 127.07 142.93 111.21 142.93 95.34 142.93 79.48 142.93 63.45 142.93 47.59 142.93 31.73 158.79 31.73 158.79 15.86 174.66 15.86 174.66 0 158.79 0 142.93 0 127.07 0 111.21 0 95.34 0 95.34 15.86 111.21 15.86 111.21 31.73 127.07 31.73 127.07 47.59 127.07 63.45 127.07 79.48 127.07 95.34 127.07 111.21 127.07 127.07 111.21 127.07 95.34 127.07 79.48 127.07 79.48 111.21 79.48 95.34 63.45 95.34 63.45 111.21 63.45 127.07 47.59 127.07 31.73 127.07 15.86 127.07 15.86 111.21 15.86 95.34 0 95.34 0 111.21 0 127.07 0 142.93 0 158.79 0 174.66 15.86 174.66 15.86 158.79 15.86 142.93 31.73 142.93 47.59 142.93 63.45 142.93 63.45 158.79 63.45 174.66 79.48 174.66 79.48 158.79 79.48 142.93 95.34 142.93 111.21 142.93 127.07 142.93 127.07 158.79 127.07 174.66 127.07 190.52 127.07 206.55 127.07 222.41 127.07 238.27 111.21 238.27 111.21 254.14 95.34 254.14 95.34 270 111.21 270 127.07 270 142.93 270 158.79 270 174.66 270 174.66 254.14 158.79 254.14 158.79 238.27 142.93 238.27 142.93 222.41 142.93 206.55 142.93 190.52 142.93 174.66 142.93 158.79 142.93 142.93 158.79 142.93 174.66 142.93 190.52 142.93 190.52 158.79 190.52 174.66 206.55 174.66 206.55 158.79 206.55 142.93 222.41 142.93 238.27 142.93 254.14 142.93 254.14 158.79 254.14 174.66 270 174.66 270 158.79 270 142.93 270 127.07 270 111.21 270 95.34 254.14 95.34"/>
      <polygon class="cls-1" points="238.27 190.52 238.27 206.55 254.14 206.55 254.14 190.52 254.14 174.66 238.27 174.66 238.27 190.52"/>
      <polygon class="cls-1" points="238.27 95.34 254.14 95.34 254.14 79.48 254.14 63.45 238.27 63.45 238.27 79.48 238.27 95.34"/>
      <rect class="cls-1" x="222.41" y="206.55" width="15.86" height="15.86"/>
      <rect class="cls-1" x="222.41" y="47.59" width="15.86" height="15.86"/>
      <rect class="cls-1" x="206.55" y="222.41" width="15.86" height="15.86"/>
      <rect class="cls-1" x="206.55" y="31.73" width="15.86" height="15.86"/>
      <polygon class="cls-1" points="174.66 238.27 174.66 254.14 190.52 254.14 206.55 254.14 206.55 238.27 190.52 238.27 174.66 238.27"/>
      <polygon class="cls-1" points="174.66 190.52 174.66 206.55 174.66 222.41 190.52 222.41 190.52 206.55 190.52 190.52 190.52 174.66 174.66 174.66 174.66 190.52"/>
      <polygon class="cls-1" points="190.52 63.45 190.52 47.59 174.66 47.59 174.66 63.45 174.66 79.48 174.66 95.34 190.52 95.34 190.52 79.48 190.52 63.45"/>
      <polygon class="cls-1" points="190.52 31.73 206.55 31.73 206.55 15.86 190.52 15.86 174.66 15.86 174.66 31.73 190.52 31.73"/>
      <rect class="cls-1" x="158.79" y="222.41" width="15.86" height="15.86"/>
      <rect class="cls-1" x="158.79" y="31.73" width="15.86" height="15.86"/>
      <rect class="cls-1" x="95.34" y="222.41" width="15.86" height="15.86"/>
      <rect class="cls-1" x="95.34" y="31.73" width="15.86" height="15.86"/>
      <polygon class="cls-1" points="79.48 238.27 63.45 238.27 63.45 254.14 79.48 254.14 95.34 254.14 95.34 238.27 79.48 238.27"/>
      <polygon class="cls-1" points="79.48 206.55 79.48 222.41 95.34 222.41 95.34 206.55 95.34 190.52 95.34 174.66 79.48 174.66 79.48 190.52 79.48 206.55"/>
      <polygon class="cls-1" points="95.34 79.48 95.34 63.45 95.34 47.59 79.48 47.59 79.48 63.45 79.48 79.48 79.48 95.34 95.34 95.34 95.34 79.48"/>
      <polygon class="cls-1" points="95.34 31.73 95.34 15.86 79.48 15.86 63.45 15.86 63.45 31.73 79.48 31.73 95.34 31.73"/>
      <rect class="cls-1" x="47.59" y="222.41" width="15.86" height="15.86"/>
      <rect class="cls-1" x="47.59" y="31.73" width="15.86" height="15.86"/>
      <rect class="cls-1" x="31.73" y="206.55" width="15.86" height="15.86"/>
      <rect class="cls-1" x="31.73" y="47.59" width="15.86" height="15.86"/>
      <polygon class="cls-1" points="31.73 174.66 15.86 174.66 15.86 190.52 15.86 206.55 31.73 206.55 31.73 190.52 31.73 174.66"/>
      <polygon class="cls-1" points="31.73 79.48 31.73 63.45 15.86 63.45 15.86 79.48 15.86 95.34 31.73 95.34 31.73 79.48"/>
    </g>
  </g>
</svg>