<?xml version="1.0" encoding="UTF-8"?>
<svg id="Layer_2" data-name="Layer 2" xmlns="http://www.w3.org/2000/svg" viewBox="0 0 270 270">
  <defs>
    <style>
      .cls-1 {
        fill: #005aff;
      }
    </style>
  </defs>
  <g id="Layer_1-2" data-name="Layer 1">
    <g>
      <path class="cls-1" d="M254.14,31.73v-15.86h-15.86v79.48h-15.86v15.86H47.59v-15.86h-15.86V15.86h-15.86v15.86H0v206.55h15.86v15.86h15.86v15.86h206.55v-15.86h15.86v-15.86h15.86V31.73h-15.86ZM15.86,142.93v-15.86h31.73v31.72H15.86v-15.86ZM206.55,254.14H47.59v-63.62h15.86v-15.86h143.1v15.86h15.86v63.62h-15.86ZM254.14,142.93v15.86h-31.72v-31.72h31.72v15.86Z"/>
      <polygon class="cls-1" points="158.79 190.52 158.79 206.55 174.66 206.55 190.52 206.55 190.52 190.52 174.66 190.52 158.79 190.52"/>
      <polygon class="cls-1" points="142.93 222.41 127.07 222.41 127.07 238.27 142.93 238.27 158.79 238.27 174.66 238.27 174.66 222.41 158.79 222.41 142.93 222.41"/>
      <polygon class="cls-1" points="142.93 206.55 142.93 190.52 127.07 190.52 111.21 190.52 95.34 190.52 79.48 190.52 79.48 206.55 95.34 206.55 111.21 206.55 127.07 206.55 142.93 206.55"/>
      <polygon class="cls-1" points="79.48 222.41 79.48 238.27 95.34 238.27 111.21 238.27 111.21 222.41 95.34 222.41 79.48 222.41"/>
      <path class="cls-1" d="M63.45,15.86h16.03v63.62h15.86v15.86h127.07V15.86h15.86V0H31.73v15.86h31.72ZM206.55,47.59v15.86h-31.89v-31.72h31.89v15.86Z"/>
    </g>
  </g>
</svg>