<?xml version="1.0" encoding="UTF-8"?>
<svg id="Layer_2" xmlns="http://www.w3.org/2000/svg" version="1.1" viewBox="0 0 349.6 522">
  <!-- Generator: Adobe Illustrator 29.6.1, SVG Export Plug-In . SVG Version: 2.1.1 Build 9)  -->
  <defs>
    <style>
      .st0 {
        fill: #005aff;
      }
    </style>
  </defs>
  <g id="Layer_4">
    <g>
      <g>
        <rect class="st0" x="40" y="202.4" width="40" height="20"/>
        <rect class="st0" y="202.4" width="20" height="20"/>
        <rect class="st0" x="80" y="182.4" width="20" height="20"/>
        <rect class="st0" x="120" y="282.4" width="20" height="80"/>
        <rect class="st0" x="120" y="62.4" width="20" height="80"/>
        <rect class="st0" x="100" y="242.4" width="20" height="40"/>
        <rect class="st0" x="140" y="242.4" width="20" height="40"/>
        <rect class="st0" x="160" y="182.4" width="20" height="20"/>
        <rect class="st0" x="100" y="142.4" width="20" height="40"/>
        <rect class="st0" x="140" y="142.4" width="20" height="40"/>
        <rect class="st0" x="80" y="222.4" width="20" height="20"/>
        <rect class="st0" x="160" y="222.4" width="20" height="20"/>
        <rect class="st0" x="180" y="202.4" width="40" height="20"/>
        <rect class="st0" x="240" y="202.4" width="20" height="20"/>
      </g>
      <g>
        <rect class="st0" x="34.6" y="390.2" width="20" height="20"/>
        <rect class="st0" x="54.6" y="370.2" width="20" height="20"/>
        <rect class="st0" x="14.6" y="370.2" width="20" height="20"/>
        <rect class="st0" x="34.6" y="350.2" width="20" height="20"/>
      </g>
      <g>
        <rect class="st0" x="138.4" y="501.9" width="20" height="20"/>
        <rect class="st0" x="158.4" y="481.9" width="20" height="20"/>
        <rect class="st0" x="118.4" y="481.9" width="20" height="20"/>
        <rect class="st0" x="138.4" y="461.9" width="20" height="20"/>
      </g>
      <g>
        <rect class="st0" x="259.6" width="20" height="40"/>
        <rect class="st0" x="239.6" y="40" width="20" height="20"/>
        <rect class="st0" x="279.6" y="40" width="20" height="20"/>
        <rect class="st0" x="219.6" y="60" width="20" height="20"/>
        <rect class="st0" x="299.6" y="60" width="20" height="20"/>
        <rect class="st0" x="239.6" y="80" width="20" height="20"/>
        <rect class="st0" x="279.6" y="80" width="20" height="20"/>
        <rect class="st0" x="259.6" y="100" width="20" height="40"/>
      </g>
      <g>
        <rect class="st0" x="289.6" y="315.4" width="20" height="40"/>
        <rect class="st0" x="309.6" y="295.4" width="40" height="20"/>
        <rect class="st0" x="249.6" y="295.4" width="40" height="20"/>
        <rect class="st0" x="289.6" y="255.4" width="20" height="40"/>
      </g>
    </g>
  </g>
</svg>